<svg width="174" height="171" viewBox="0 0 174 171" fill="none" xmlns="http://www.w3.org/2000/svg">
<g clip-path="url(#clip0_6_206)">
<path d="M110.98 38.332H101.722V117.937C101.722 119.186 101.478 120.422 101.004 121.576C100.53 122.73 99.8354 123.779 98.9597 124.662C98.084 125.545 97.0444 126.245 95.9003 126.723C94.7562 127.201 93.5299 127.447 92.2915 127.447H21.5093V127.538C21.5093 128.787 21.7532 130.024 22.2271 131.178C22.701 132.332 23.3956 133.38 24.2713 134.264C25.147 135.147 26.1866 135.847 27.3307 136.325C28.4749 136.803 29.7011 137.049 30.9395 137.049H110.98C112.218 137.049 113.445 136.803 114.589 136.325C115.733 135.847 116.772 135.147 117.648 134.264C118.524 133.38 119.218 132.332 119.692 131.178C120.166 130.024 120.41 128.787 120.41 127.538V47.8428C120.41 45.3204 119.417 42.9013 117.648 41.1177C115.88 39.3341 113.481 38.332 110.98 38.332Z" fill="#F2F2F2"/>
<path d="M154.868 164.836C155.032 164.844 155.194 164.8 155.333 164.712C155.471 164.623 155.579 164.494 155.643 164.341C155.706 164.189 155.721 164.02 155.686 163.858C155.651 163.697 155.568 163.55 155.448 163.437L155.393 163.217C155.4 163.2 155.407 163.182 155.415 163.165C155.58 162.771 155.856 162.436 156.21 162.201C156.563 161.965 156.978 161.841 157.401 161.842C157.825 161.844 158.239 161.972 158.59 162.21C158.942 162.448 159.216 162.785 159.378 163.18C160.027 164.754 160.852 166.332 161.055 167.997C161.145 168.733 161.107 169.479 160.944 170.202C162.467 166.852 163.257 163.211 163.262 159.526C163.263 158.601 163.212 157.677 163.11 156.758C163.025 156.005 162.909 155.257 162.759 154.514C161.943 150.484 160.191 146.707 157.646 143.493C156.415 142.816 155.419 141.773 154.792 140.507C154.566 140.052 154.405 139.566 154.316 139.065C154.455 139.083 154.84 136.949 154.735 136.818C154.929 136.522 155.276 136.375 155.487 136.086C156.539 134.648 157.987 134.899 158.744 136.853C160.36 137.675 160.375 139.039 159.384 140.351C158.753 141.186 158.666 142.315 158.113 143.208C158.17 143.282 158.229 143.353 158.286 143.427C159.327 144.776 160.234 146.226 160.994 147.754C160.81 146.042 161.03 144.31 161.638 142.701C162.255 141.201 163.41 139.938 164.428 138.641C164.697 138.293 165.062 138.033 165.478 137.894C165.894 137.755 166.341 137.744 166.763 137.861C167.185 137.979 167.563 138.22 167.849 138.554C168.136 138.888 168.317 139.3 168.371 139.738C168.373 139.757 168.375 139.776 168.377 139.795C168.226 139.881 168.078 139.973 167.934 140.069C167.752 140.192 167.611 140.367 167.529 140.571C167.448 140.776 167.43 141.001 167.477 141.216C167.524 141.431 167.635 141.627 167.795 141.778C167.954 141.929 168.155 142.028 168.371 142.061L168.393 142.065C168.34 142.614 168.244 143.158 168.109 143.693C169.414 148.784 166.596 150.638 162.572 150.722C162.483 150.768 162.397 150.814 162.308 150.857C163.072 153.041 163.551 155.316 163.734 157.624C163.837 158.986 163.831 160.354 163.715 161.715L163.722 161.666C164.014 160.153 164.814 158.788 165.988 157.801C167.732 156.356 170.196 155.824 172.077 154.663C172.277 154.533 172.51 154.464 172.747 154.463C172.985 154.463 173.218 154.531 173.418 154.659C173.619 154.788 173.779 154.971 173.879 155.189C173.98 155.406 174.017 155.647 173.985 155.885L173.978 155.936C173.697 156.051 173.424 156.184 173.16 156.333C173.009 156.419 172.861 156.51 172.716 156.607C172.535 156.729 172.394 156.904 172.312 157.109C172.231 157.314 172.212 157.538 172.26 157.754C172.307 157.969 172.418 158.165 172.577 158.316C172.737 158.467 172.938 158.565 173.154 158.599L173.176 158.602C173.192 158.605 173.206 158.607 173.222 158.609C172.742 159.763 172.07 160.825 171.233 161.749C170.417 166.193 166.912 166.615 163.162 165.321H163.16C162.748 167.124 162.152 168.879 161.381 170.558H155.027C155.004 170.487 154.984 170.413 154.963 170.342C155.551 170.379 156.142 170.344 156.721 170.236C156.25 169.653 155.779 169.065 155.307 168.481C155.297 168.471 155.287 168.459 155.277 168.447C155.038 168.148 154.797 167.852 154.558 167.553L154.558 167.553C154.545 166.638 154.649 165.725 154.868 164.836Z" fill="#F2F2F2"/>
<path d="M84.8821 27.5036C85.1141 27.8581 85.4197 28.1575 85.7777 28.3811C86.1357 28.6048 86.5376 28.7474 86.9556 28.799C87.3737 28.8506 87.7978 28.81 88.1987 28.68C88.5996 28.55 88.9678 28.3338 89.2777 28.0462L102.488 34.0572L105.035 30.7807L89.2931 23.7571C88.7743 23.267 88.0953 22.9858 87.3847 22.9669C86.6741 22.948 85.9813 23.1926 85.4376 23.6544C84.8939 24.1162 84.5371 24.7631 84.4347 25.4725C84.3323 26.182 84.4915 26.9046 84.8821 27.5036Z" fill="#A0616A"/>
<path d="M141.576 31.2518L142.887 38.7398C142.948 39.0892 142.936 39.4476 142.851 39.792C142.767 40.1363 142.612 40.4592 142.397 40.7397C142.182 41.0201 141.91 41.2521 141.601 41.4207C141.291 41.5893 140.95 41.6908 140.6 41.7186L118.336 43.4843L92.1667 31.6721L95.2924 25.688L118.01 32.9434L141.576 31.2518Z" fill="#8C63FF"/>
<path d="M89.4706 25.8853H9.43027C4.22208 25.8853 0 30.1434 0 35.396V115.092C0 120.344 4.22208 124.602 9.43027 124.602H89.4706C94.6788 124.602 98.9009 120.344 98.9009 115.092V35.396C98.9009 30.1434 94.6788 25.8853 89.4706 25.8853Z" fill="#F2F2F2"/>
<path d="M9.43038 27.8411C8.44666 27.8411 7.47256 28.0365 6.56372 28.4162C5.65488 28.7959 4.82909 29.3524 4.13349 30.0539C3.4379 30.7554 2.88611 31.5883 2.50966 32.5049C2.13321 33.4215 1.93945 34.4039 1.93945 35.396V115.092C1.93945 117.095 2.72867 119.017 4.13349 120.434C5.53831 121.851 7.44366 122.647 9.43038 122.647H60.5141C65.3004 122.647 70.0399 121.696 74.4619 119.848C78.8839 118.001 82.9018 115.294 86.2863 111.88C89.6707 108.467 92.3555 104.415 94.1871 99.9549C96.0188 95.4951 96.9615 90.7152 96.9615 85.888V35.396C96.9615 34.4039 96.7677 33.4215 96.3913 32.5049C96.0148 31.5883 95.4631 30.7554 94.7675 30.0539C94.0719 29.3524 93.2461 28.7959 92.3372 28.4162C91.4284 28.0365 90.4543 27.8411 89.4706 27.8411H9.43038Z" fill="white"/>
<path d="M71.8255 52.0274H26.9005C26.4883 52.0274 26.0929 51.8623 25.8014 51.5683C25.5099 51.2743 25.3462 50.8756 25.3462 50.4599C25.3462 50.0441 25.5099 49.6454 25.8014 49.3514C26.0929 49.0574 26.4883 48.8923 26.9005 48.8923H71.8255C72.2377 48.8923 72.633 49.0574 72.9245 49.3514C73.216 49.6454 73.3798 50.0441 73.3798 50.4599C73.3798 50.8756 73.216 51.2743 72.9245 51.5683C72.633 51.8623 72.2377 52.0274 71.8255 52.0274Z" fill="#F2F2F2"/>
<path d="M71.8255 85.4559H26.9005C26.4883 85.4559 26.0929 85.2907 25.8014 84.9967C25.5099 84.7027 25.3462 84.304 25.3462 83.8883C25.3462 83.4725 25.5099 83.0738 25.8014 82.7798C26.0929 82.4858 26.4883 82.3207 26.9005 82.3207H71.8255C72.2377 82.3207 72.633 82.4858 72.9245 82.7798C73.216 83.0738 73.3798 83.4725 73.3798 83.8883C73.3798 84.304 73.216 84.7027 72.9245 84.9967C72.633 85.2907 72.2377 85.4559 71.8255 85.4559Z" fill="#F2F2F2"/>
<path d="M90.0684 68.7526H8.65735C8.24511 68.7526 7.84977 68.5875 7.55828 68.2935C7.26678 67.9995 7.10303 67.6008 7.10303 67.185C7.10303 66.7693 7.26678 66.3705 7.55828 66.0766C7.84977 65.7826 8.24511 65.6174 8.65735 65.6174H90.0684C90.4807 65.6174 90.876 65.7826 91.1675 66.0766C91.459 66.3705 91.6227 66.7693 91.6227 67.185C91.6227 67.6008 91.459 67.9995 91.1675 68.2935C90.876 68.5875 90.4807 68.7526 90.0684 68.7526Z" fill="#F2F2F2"/>
<path d="M138.764 64.2562L130.653 81.6817L161.851 78.4949L155.339 61.7668L138.764 64.2562Z" fill="#A0616A"/>
<path d="M146.017 164.411L143.059 164.386L141.749 152.611L146.115 152.648L146.017 164.411Z" fill="#A0616A"/>
<path d="M136.542 169.155C136.539 169.508 136.676 169.849 136.922 170.101C137.167 170.353 137.502 170.497 137.853 170.5L143.734 170.55L144.764 168.445L145.142 170.56L147.361 170.581L146.801 163.035L146.028 162.984L142.879 162.765L141.864 162.696L141.846 164.831L137.121 168.063C136.944 168.184 136.799 168.346 136.698 168.537C136.597 168.727 136.544 168.939 136.542 169.155Z" fill="#2F2E41"/>
<path d="M113.282 164.424L110.462 163.524L112.641 151.881L116.803 153.21L113.282 164.424Z" fill="#A0616A"/>
<path d="M102.844 166.151C102.738 166.489 102.77 166.854 102.931 167.168C103.092 167.482 103.371 167.719 103.705 167.826L109.312 169.616L110.909 167.909L110.654 170.043L112.77 170.72L114.432 163.342L113.709 163.064L110.763 161.921L109.812 161.555L109.173 163.59L103.716 165.279C103.511 165.343 103.325 165.455 103.173 165.607C103.021 165.759 102.908 165.946 102.844 166.151Z" fill="#2F2E41"/>
<path d="M160.431 73.5946L132.064 78.8367C132.064 78.8367 127.514 82.2692 128.731 83.4984C129.948 84.7277 130.137 84.5373 129.338 85.3438C128.538 86.1502 126.809 87.2283 126.792 87.9339C126.775 88.6396 114.081 120.29 114.081 120.29C114.081 120.29 115.491 119.579 114.433 120.645C113.376 121.712 113.376 122.594 113.376 122.594L108.439 156.208L116.456 156.684L124.307 126.039L141.817 97.4097C141.817 97.4097 143.554 122.939 143.627 124.637C143.7 126.335 144.758 124.202 143.7 126.335C142.642 128.469 141.937 127.047 142.642 128.469C143.348 129.892 140.102 158.852 140.102 158.852H147.42L163.114 98.8258C163.114 98.8258 168.698 81.6651 160.431 73.5946Z" fill="#2F2E41"/>
<path d="M152.074 25.5815L140.711 24.3907L137.767 28.2454L134.338 30.0876C132.886 30.8672 131.689 32.0519 130.887 33.5001C130.086 34.9482 129.715 36.5985 129.819 38.2535L133.827 61.7669C133.827 61.7669 130.442 69.4551 132.769 71.3687C135.097 73.2822 130.97 78.0213 135.943 75.6361C140.916 73.2509 162.389 75.9918 162.389 75.9918L157.805 62.8338L161.229 49.9042L161.606 39.063C161.676 37.0371 161.08 35.0447 159.911 33.3962C158.741 31.7478 157.063 30.5359 155.139 29.9495L154.66 29.8036L152.074 25.5815Z" fill="#8C63FF"/>
<path d="M167.717 16.7961C167.792 20.0262 166.595 23.1539 164.875 25.901C164.365 24.2973 163.446 22.8376 162.488 21.4462C162.971 24.4563 162.457 27.5429 161.025 30.2285C160.974 30.2649 160.922 30.2987 160.868 30.3298C159.467 31.1801 157.69 31.5245 156.174 30.9104C159.306 27.5047 159.705 21.862 157.079 18.042C156.335 16.958 155.373 15.9994 154.913 14.7658C154.185 12.7976 154.885 10.6306 155.325 8.57854C155.738 6.6687 155.81 4.39598 154.54 2.99631C154.675 2.80071 154.86 2.64501 155.075 2.54517C155.29 2.44533 155.528 2.40493 155.763 2.42812C156.546 2.53971 157.117 3.22637 157.48 3.93358C157.843 4.64077 158.082 5.42459 158.588 6.03543C159.526 7.17875 161.122 7.44906 162.467 8.05162C165.724 9.51486 167.639 13.2018 167.717 16.7961Z" fill="#2F2E41"/>
<path d="M83.7985 170.577C83.7983 170.632 83.809 170.688 83.8301 170.739C83.8511 170.79 83.882 170.837 83.921 170.876C83.96 170.916 84.0063 170.947 84.0573 170.968C84.1083 170.989 84.1629 171 84.2181 171H173.531C173.642 171 173.749 170.955 173.828 170.876C173.906 170.797 173.951 170.689 173.951 170.577C173.951 170.465 173.906 170.357 173.828 170.278C173.749 170.198 173.642 170.154 173.531 170.154H84.2181C84.1629 170.153 84.1083 170.164 84.0573 170.185C84.0063 170.207 83.96 170.238 83.921 170.277C83.882 170.317 83.8511 170.363 83.8301 170.415C83.809 170.466 83.7983 170.521 83.7985 170.577Z" fill="#CCCCCC"/>
<path d="M168.421 91.6607C170.173 91.6607 171.594 90.2278 171.594 88.4601C171.594 86.6925 170.173 85.2595 168.421 85.2595C166.668 85.2595 165.247 86.6925 165.247 88.4601C165.247 90.2278 166.668 91.6607 168.421 91.6607Z" fill="#8C63FF"/>
<path d="M140.299 14.9492C140.485 14.2922 139.202 18.3085 139.821 18.381C142.641 18.7073 146.512 20.4056 148.476 21.198C148.564 21.1876 148.653 21.1773 148.739 21.1643C148.949 21.141 149.155 21.1073 149.358 21.0685C153.93 20.1959 155.689 13.1114 155.689 13.0467C155.689 12.7282 154.931 3.98085 153.737 3.8514C153.424 3.81709 153.108 3.7998 152.793 3.79961H149.83C149.217 3.66638 148.596 3.57554 147.97 3.52774H147.965C142.001 3.06942 137.298 6.73588 137.737 11.1973C137.74 11.2025 137.745 11.2076 137.748 11.2128C137.875 11.4044 137.987 11.5857 138.086 11.7592C138.182 11.9223 138.263 12.0777 138.333 12.2252C138.877 13.3645 137.479 14.7982 138.406 15.0657C139.638 15.4216 135.164 27.119 140.042 27.119C137.67 27.7994 139.786 16.7617 140.299 14.9492Z" fill="#2F2E41"/>
<path d="M145.624 21.8128C149.498 21.8128 152.638 18.6454 152.638 14.7382C152.638 10.831 149.498 7.66364 145.624 7.66364C141.75 7.66364 138.609 10.831 138.609 14.7382C138.609 18.6454 141.75 21.8128 145.624 21.8128Z" fill="#A0616A"/>
<path d="M137.737 11.5831C137.854 11.6453 137.969 11.7022 138.086 11.7592C138.208 11.8187 138.33 11.8783 138.453 11.9327C140.801 13.0072 142.713 13.1263 143.873 11.5831C143.904 10.7711 144.085 9.97203 144.407 9.22682C144.35 10.0596 144.568 10.888 145.026 11.5831H147.362C149.768 13.1937 151.003 13.362 149.333 18.6494C148.868 20.1227 147.016 28.6959 147.745 29.9673C147.955 29.944 150.197 20.5536 150.4 20.5148C154.973 19.6422 157.878 12.044 157.506 11.6142C157.508 10.3919 157.229 9.18573 156.692 8.09012C156.012 6.70206 154.953 5.53937 153.638 4.73955C152.855 4.35644 152.038 4.047 151.198 3.81516C151.178 3.80997 151.159 3.80479 151.139 3.79962C150.881 3.7297 150.618 3.66497 150.356 3.61059C149.813 3.49501 149.264 3.41115 148.712 3.35944C148.673 3.35684 148.634 3.35425 148.597 3.35425C148.377 3.35477 148.16 3.41466 147.97 3.52774C147.968 3.52774 147.968 3.53032 147.965 3.53032C147.829 3.61031 147.711 3.71682 147.616 3.84362C147.45 4.05698 147.361 4.32066 147.362 4.59194H144.76C144.664 4.59194 144.568 4.59453 144.472 4.5997C142.736 4.65953 141.084 5.37059 139.84 6.59372C138.597 7.81684 137.851 9.464 137.748 11.2128C137.74 11.3371 137.737 11.4588 137.737 11.5831Z" fill="#2F2E41"/>
<path d="M153.074 9.32155C155.627 9.32155 157.696 7.23485 157.696 4.66077C157.696 2.0867 155.627 0 153.074 0C150.522 0 148.453 2.0867 148.453 4.66077C148.453 7.23485 150.522 9.32155 153.074 9.32155Z" fill="#2F2E41"/>
<path d="M168.456 89.7799C168.682 89.4212 168.827 89.0174 168.883 88.5963C168.939 88.1753 168.903 87.7472 168.778 87.3415C168.654 86.9358 168.443 86.5622 168.161 86.2466C167.879 85.9311 167.533 85.681 167.146 85.5137L167.169 70.8972L163.161 69.8969L163.26 87.2573C163.029 87.9354 163.053 88.6753 163.328 89.3368C163.602 89.9983 164.107 90.5353 164.747 90.8463C165.388 91.1572 166.119 91.2204 166.803 91.0239C167.486 90.8273 168.075 90.3847 168.456 89.7799Z" fill="#A0616A"/>
<path d="M148.613 36.0874L154.848 31.8134C155.139 31.6141 155.468 31.4782 155.814 31.4147C156.161 31.3511 156.516 31.3612 156.858 31.4443C157.2 31.5275 157.521 31.6818 157.8 31.8974C158.079 32.1131 158.311 32.3852 158.48 32.6964L169.2 52.4543L169.241 81.37L162.548 80.9469L159.8 57.0742L148.613 36.0874Z" fill="#8C63FF"/>
<path d="M100.722 101.664H34.0783C32.6287 101.664 31.2386 102.245 30.2136 103.279C29.1886 104.312 28.6128 105.714 28.6128 107.176C28.6128 108.638 29.1886 110.04 30.2136 111.074C31.2386 112.108 32.6287 112.689 34.0783 112.689H100.722C102.171 112.689 103.562 112.108 104.587 111.074C105.611 110.04 106.187 108.638 106.187 107.176C106.187 105.714 105.611 104.312 104.587 103.279C103.562 102.245 102.171 101.664 100.722 101.664Z" fill="white"/>
<path d="M100.722 113.044H34.0783C32.5353 113.044 31.0554 112.426 29.9643 111.325C28.8732 110.225 28.2603 108.733 28.2603 107.176C28.2603 105.62 28.8732 104.128 29.9643 103.027C31.0554 101.927 32.5353 101.309 34.0783 101.309H100.722C102.265 101.309 103.745 101.927 104.836 103.027C105.927 104.128 106.54 105.62 106.54 107.176C106.54 108.733 105.927 110.225 104.836 111.325C103.745 112.426 102.265 113.044 100.722 113.044ZM34.0783 102.02C32.7223 102.02 31.4218 102.563 30.463 103.53C29.5042 104.497 28.9655 105.809 28.9655 107.176C28.9655 108.544 29.5042 109.856 30.463 110.823C31.4218 111.79 32.7223 112.333 34.0783 112.333H100.722C102.078 112.333 103.378 111.79 104.337 110.823C105.296 109.856 105.835 108.544 105.835 107.176C105.835 105.809 105.296 104.497 104.337 103.53C103.378 102.563 102.078 102.02 100.722 102.02H34.0783Z" fill="#8C63FF"/>
<path d="M104.652 125.719H75.2416C74.8293 125.719 74.434 125.554 74.1425 125.26C73.851 124.966 73.6873 124.568 73.6873 124.152C73.6873 123.736 73.851 123.337 74.1425 123.043C74.434 122.749 74.8293 122.584 75.2416 122.584H104.652C105.064 122.584 105.459 122.749 105.751 123.043C106.042 123.337 106.206 123.736 106.206 124.152C106.206 124.568 106.042 124.966 105.751 125.26C105.459 125.554 105.064 125.719 104.652 125.719Z" fill="#8C63FF"/>
<path d="M57.147 105.136L57.867 106.416L55.675 107.232L57.867 108.048L57.131 109.36L55.307 107.92L55.643 110.24H54.171L54.475 107.92L52.651 109.392L51.883 108.032L54.059 107.216L51.883 106.432L52.619 105.12L54.491 106.56L54.171 104.224H55.659L55.307 106.56L57.147 105.136ZM65.2095 105.136L65.9295 106.416L63.7375 107.232L65.9295 108.048L65.1935 109.36L63.3695 107.92L63.7055 110.24H62.2335L62.5375 107.92L60.7135 109.392L59.9455 108.032L62.1215 107.216L59.9455 106.432L60.6815 105.12L62.5535 106.56L62.2335 104.224H63.7215L63.3695 106.56L65.2095 105.136ZM73.272 105.136L73.992 106.416L71.8 107.232L73.992 108.048L73.256 109.36L71.432 107.92L71.768 110.24H70.296L70.6 107.92L68.776 109.392L68.008 108.032L70.184 107.216L68.008 106.432L68.744 105.12L70.616 106.56L70.296 104.224H71.784L71.432 106.56L73.272 105.136ZM81.3345 105.136L82.0545 106.416L79.8625 107.232L82.0545 108.048L81.3185 109.36L79.4945 107.92L79.8305 110.24H78.3585L78.6625 107.92L76.8385 109.392L76.0705 108.032L78.2465 107.216L76.0705 106.432L76.8065 105.12L78.6785 106.56L78.3585 104.224H79.8465L79.4945 106.56L81.3345 105.136Z" fill="black"/>
</g>
<defs>
<clipPath id="clip0_6_206">
<rect width="174" height="171" fill="white"/>
</clipPath>
</defs>
</svg>
