<svg width="30" height="30" viewBox="0 0 30 30" fill="none" xmlns="http://www.w3.org/2000/svg">
<g clip-path="url(#clip0_137_604)">
<path d="M23.75 16.25H9.7875L15.8875 22.35C16.375 22.8375 16.375 23.6375 15.8875 24.125C15.4 24.6125 14.6125 24.6125 14.125 24.125L5.8875 15.8875C5.4 15.4 5.4 14.6125 5.8875 14.125L14.1125 5.87502C14.6 5.38752 15.3875 5.38752 15.875 5.87502C16.3625 6.36252 16.3625 7.15003 15.875 7.63753L9.7875 13.75H23.75C24.4375 13.75 25 14.3125 25 15C25 15.6875 24.4375 16.25 23.75 16.25Z" fill="black"/>
</g>
<defs>
<clipPath id="clip0_137_604">
<rect width="30" height="30" fill="white" transform="matrix(-1 0 0 1 30 0)"/>
</clipPath>
</defs>
</svg>
