<svg width="22" height="22" viewBox="0 0 22 22" fill="none" xmlns="http://www.w3.org/2000/svg">
<path d="M20.1667 2.29175H18.3333V3.66675C18.3333 4.15298 18.1402 4.61929 17.7964 4.96311C17.4525 5.30693 16.9862 5.50008 16.5 5.50008C16.0138 5.50008 15.5475 5.30693 15.2036 4.96311C14.8598 4.61929 14.6667 4.15298 14.6667 3.66675V2.29175H7.33333V3.66675C7.33333 4.15298 7.14018 4.61929 6.79636 4.96311C6.45255 5.30693 5.98623 5.50008 5.5 5.50008C5.01377 5.50008 4.54745 5.30693 4.20364 4.96311C3.85982 4.61929 3.66667 4.15298 3.66667 3.66675V2.29175H1.83333C1.3471 2.29175 0.880788 2.4849 0.536971 2.82872C0.193154 3.17254 0 3.63885 0 4.12508L0 20.1667C0 20.653 0.193154 21.1193 0.536971 21.4631C0.880788 21.8069 1.3471 22.0001 1.83333 22.0001H20.1667C20.6529 22.0001 21.1192 21.8069 21.463 21.4631C21.8068 21.1193 22 20.653 22 20.1667V4.12508C22 3.63885 21.8068 3.17254 21.463 2.82872C21.1192 2.4849 20.6529 2.29175 20.1667 2.29175ZM20.625 19.7084C20.625 19.9515 20.5284 20.1847 20.3565 20.3566C20.1846 20.5285 19.9514 20.6251 19.7083 20.6251H2.29167C2.04855 20.6251 1.81539 20.5285 1.64349 20.3566C1.47158 20.1847 1.375 19.9515 1.375 19.7084V7.79175C1.375 7.54863 1.47158 7.31548 1.64349 7.14357C1.81539 6.97166 2.04855 6.87508 2.29167 6.87508H19.7083C19.9514 6.87508 20.1846 6.97166 20.3565 7.14357C20.5284 7.31548 20.625 7.54863 20.625 7.79175V19.7084Z" fill="black"/>
<path d="M14.2083 8.25H12.375C12.1218 8.25 11.9166 8.4552 11.9166 8.70833V10.5417C11.9166 10.7948 12.1218 11 12.375 11H14.2083C14.4614 11 14.6666 10.7948 14.6666 10.5417V8.70833C14.6666 8.4552 14.4614 8.25 14.2083 8.25Z" fill="black"/>
<path d="M18.7917 8.25H16.9583C16.7052 8.25 16.5 8.4552 16.5 8.70833V10.5417C16.5 10.7948 16.7052 11 16.9583 11H18.7917C19.0448 11 19.25 10.7948 19.25 10.5417V8.70833C19.25 8.4552 19.0448 8.25 18.7917 8.25Z" fill="black"/>
<path d="M5.04167 12.375H3.20833C2.9552 12.375 2.75 12.5802 2.75 12.8333V14.6667C2.75 14.9198 2.9552 15.125 3.20833 15.125H5.04167C5.2948 15.125 5.5 14.9198 5.5 14.6667V12.8333C5.5 12.5802 5.2948 12.375 5.04167 12.375Z" fill="black"/>
<path d="M9.62504 12.375H7.79171C7.53858 12.375 7.33337 12.5802 7.33337 12.8333V14.6667C7.33337 14.9198 7.53858 15.125 7.79171 15.125H9.62504C9.87817 15.125 10.0834 14.9198 10.0834 14.6667V12.8333C10.0834 12.5802 9.87817 12.375 9.62504 12.375Z" fill="black"/>
<path d="M14.2083 12.375H12.375C12.1218 12.375 11.9166 12.5802 11.9166 12.8333V14.6667C11.9166 14.9198 12.1218 15.125 12.375 15.125H14.2083C14.4614 15.125 14.6666 14.9198 14.6666 14.6667V12.8333C14.6666 12.5802 14.4614 12.375 14.2083 12.375Z" fill="black"/>
<path d="M18.7917 12.375H16.9583C16.7052 12.375 16.5 12.5802 16.5 12.8333V14.6667C16.5 14.9198 16.7052 15.125 16.9583 15.125H18.7917C19.0448 15.125 19.25 14.9198 19.25 14.6667V12.8333C19.25 12.5802 19.0448 12.375 18.7917 12.375Z" fill="black"/>
<path d="M5.04167 16.5H3.20833C2.9552 16.5 2.75 16.7052 2.75 16.9583V18.7917C2.75 19.0448 2.9552 19.25 3.20833 19.25H5.04167C5.2948 19.25 5.5 19.0448 5.5 18.7917V16.9583C5.5 16.7052 5.2948 16.5 5.04167 16.5Z" fill="black"/>
<path d="M9.62504 16.5H7.79171C7.53858 16.5 7.33337 16.7052 7.33337 16.9583V18.7917C7.33337 19.0448 7.53858 19.25 7.79171 19.25H9.62504C9.87817 19.25 10.0834 19.0448 10.0834 18.7917V16.9583C10.0834 16.7052 9.87817 16.5 9.62504 16.5Z" fill="black"/>
<path d="M14.2083 16.5H12.375C12.1218 16.5 11.9166 16.7052 11.9166 16.9583V18.7917C11.9166 19.0448 12.1218 19.25 12.375 19.25H14.2083C14.4614 19.25 14.6666 19.0448 14.6666 18.7917V16.9583C14.6666 16.7052 14.4614 16.5 14.2083 16.5Z" fill="black"/>
<path d="M6.41671 0.916667C6.41671 0.410406 6.0063 0 5.50004 0C4.99378 0 4.58337 0.410406 4.58337 0.916667V3.66667C4.58337 4.17293 4.99378 4.58333 5.50004 4.58333C6.0063 4.58333 6.41671 4.17293 6.41671 3.66667V0.916667Z" fill="black"/>
<path d="M17.4167 0.916667C17.4167 0.410406 17.0063 0 16.5 0C15.9938 0 15.5834 0.410406 15.5834 0.916667V3.66667C15.5834 4.17293 15.9938 4.58333 16.5 4.58333C17.0063 4.58333 17.4167 4.17293 17.4167 3.66667V0.916667Z" fill="black"/>
</svg>
