<svg width="30" height="30" viewBox="0 0 30 30" fill="none" xmlns="http://www.w3.org/2000/svg">
<g clip-path="url(#clip0_340_2526)">
<path d="M28.0052 15.3887C27.8844 15.1417 27.8844 14.8585 28.0052 14.6115L29.1241 12.3226C29.747 11.0481 29.2534 9.5291 28.0003 8.86424L25.7498 7.6701C25.507 7.54132 25.3405 7.3121 25.293 7.04146L24.8528 4.53196C24.6077 3.13474 23.3153 2.19584 21.911 2.39453L19.3883 2.75136C19.1161 2.7898 18.8468 2.70226 18.6493 2.51119L16.8182 0.739793C15.7986 -0.246568 14.2014 -0.246627 13.1818 0.739793L11.3507 2.51136C11.1531 2.7025 10.8839 2.78986 10.6116 2.75154L8.08902 2.39471C6.68424 2.1959 5.39226 3.13492 5.14716 4.53213L4.70701 7.04151C4.65949 7.31222 4.49302 7.54137 4.25027 7.67022L1.9997 8.86436C0.746621 9.52916 0.25303 11.0483 0.875995 12.3228L1.99484 14.6117C2.11554 14.8586 2.11554 15.1419 1.99484 15.3888L0.875936 17.6777C0.252971 18.9521 0.746562 20.4712 1.99964 21.136L4.25021 22.3302C4.49302 22.459 4.65949 22.6882 4.70701 22.9588L5.14716 25.4683C5.37029 26.7403 6.46094 27.6323 7.71443 27.6322C7.83789 27.6322 7.96316 27.6235 8.08908 27.6057L10.6117 27.2489C10.8837 27.2102 11.1532 27.298 11.3507 27.489L13.1818 29.2604C13.6917 29.7537 14.3457 30.0002 15 30.0002C15.6541 30.0001 16.3085 29.7535 16.8181 29.2604L18.6493 27.489C18.8469 27.298 19.1162 27.2107 19.3883 27.2489L21.911 27.6057C23.3159 27.8044 24.6077 26.8655 24.8528 25.4683L25.293 22.9589C25.3406 22.6882 25.507 22.459 25.7498 22.3302L28.0003 21.136C29.2534 20.4712 29.747 18.9521 29.1241 17.6776L28.0052 15.3887ZM11.5394 7.2139C13.2885 7.2139 14.7116 8.63695 14.7116 10.3861C14.7116 12.1352 13.2885 13.5583 11.5394 13.5583C9.79028 13.5583 8.36722 12.1352 8.36722 10.3861C8.36722 8.63695 9.79028 7.2139 11.5394 7.2139ZM9.90207 21.3214C9.73315 21.4904 9.51173 21.5748 9.29036 21.5748C9.06899 21.5748 8.84751 21.4904 8.67865 21.3214C8.3408 20.9836 8.3408 20.4358 8.67865 20.0979L20.0979 8.67873C20.4356 8.34088 20.9835 8.34088 21.3213 8.67873C21.6592 9.01658 21.6592 9.56437 21.3213 9.90222L9.90207 21.3214ZM18.4605 22.7864C16.7113 22.7864 15.2883 21.3633 15.2883 19.6142C15.2883 17.8651 16.7113 16.442 18.4605 16.442C20.2096 16.442 21.6327 17.8651 21.6327 19.6142C21.6327 21.3633 20.2096 22.7864 18.4605 22.7864Z" fill="black"/>
<path d="M18.4605 18.1719C17.6654 18.1719 17.0186 18.8187 17.0186 19.6137C17.0186 20.4088 17.6654 21.0556 18.4605 21.0556C19.2555 21.0556 19.9023 20.4088 19.9023 19.6137C19.9023 18.8187 19.2555 18.1719 18.4605 18.1719Z" fill="black"/>
<path d="M11.5395 8.94434C10.7445 8.94434 10.0977 9.59115 10.0977 10.3862C10.0977 11.1813 10.7445 11.8281 11.5395 11.8281C12.3346 11.8281 12.9814 11.1813 12.9814 10.3862C12.9814 9.59121 12.3346 8.94434 11.5395 8.94434Z" fill="black"/>
</g>
<defs>
<clipPath id="clip0_340_2526">
<rect width="30" height="30" fill="white"/>
</clipPath>
</defs>
</svg>
