<svg width="30" height="30" viewBox="0 0 30 30" fill="none" xmlns="http://www.w3.org/2000/svg">
<path d="M14.2927 5.39961L14.1886 6.15336L14.768 5.82523C14.8387 5.78496 14.9186 5.76378 15 5.76378C15.0814 5.76378 15.1613 5.78496 15.232 5.82523L15.8114 6.15336L15.7073 5.39961C15.6971 5.32601 15.7045 5.25103 15.729 5.18085C15.7534 5.11068 15.7942 5.04733 15.848 4.99602L16.3711 4.50008L15.63 4.34773C15.5589 4.33282 15.4923 4.3016 15.4354 4.25654C15.3784 4.21147 15.3327 4.15379 15.3019 4.08805L15 3.44727L14.7 4.08617C14.6692 4.15192 14.6235 4.2096 14.5665 4.25466C14.5096 4.29973 14.4429 4.33095 14.3719 4.34586L13.6289 4.50008L14.1516 4.99789C14.2051 5.04896 14.2458 5.11198 14.2704 5.18181C14.2949 5.25163 14.3025 5.32627 14.2927 5.39961Z" fill="black"/>
<path d="M17.3438 15.9375C17.4681 15.9375 17.5873 15.8881 17.6752 15.8002C17.7631 15.7123 17.8125 15.5931 17.8125 15.4688V13.5938C17.8125 13.4694 17.7631 13.3502 17.6752 13.2623C17.5873 13.1744 17.4681 13.125 17.3438 13.125C17.2194 13.125 17.1002 13.1744 17.0123 13.2623C16.9244 13.3502 16.875 13.4694 16.875 13.5938V15.4688C16.875 15.5931 16.9244 15.7123 17.0123 15.8002C17.1002 15.8881 17.2194 15.9375 17.3438 15.9375Z" fill="black"/>
<path d="M15 8.90625C15.7417 8.90625 16.4667 8.68632 17.0834 8.27426C17.7001 7.86221 18.1807 7.27654 18.4645 6.59131C18.7484 5.90609 18.8226 5.15209 18.6779 4.42466C18.5333 3.69723 18.1761 3.02905 17.6516 2.5046C17.1272 1.98015 16.459 1.623 15.7316 1.47831C15.0042 1.33361 14.2502 1.40787 13.5649 1.6917C12.8797 1.97553 12.294 2.45618 11.882 3.07286C11.4699 3.68955 11.25 4.41457 11.25 5.15625C11.2511 6.15047 11.6466 7.10365 12.3496 7.80667C13.0526 8.50969 14.0058 8.90514 15 8.90625ZM12.2058 4.08938C12.2297 4.00743 12.2755 3.93356 12.3382 3.87574C12.401 3.81791 12.4784 3.77833 12.562 3.76125L13.9514 3.47625L14.5781 2.14453C14.616 2.064 14.676 1.99591 14.7511 1.94822C14.8262 1.90052 14.9134 1.87519 15.0023 1.87519C15.0913 1.87519 15.1785 1.90052 15.2536 1.94822C15.3287 1.99591 15.3887 2.064 15.4266 2.14453L16.0509 3.47485L17.4403 3.75985C17.5238 3.77724 17.601 3.81711 17.6636 3.87514C17.7261 3.93317 17.7716 4.00717 17.7952 4.08917C17.8188 4.17116 17.8196 4.25803 17.7974 4.34042C17.7753 4.42282 17.731 4.4976 17.6695 4.55672L16.6716 5.50735L16.8731 6.96563C16.8852 7.05235 16.8727 7.14072 16.837 7.22071C16.8014 7.30069 16.7441 7.3691 16.6716 7.41819C16.5991 7.46728 16.5143 7.49507 16.4268 7.49843C16.3393 7.50179 16.2526 7.48057 16.1766 7.43719L15 6.77016L13.8281 7.4386C13.7521 7.48198 13.6654 7.50319 13.5779 7.49984C13.4904 7.49648 13.4056 7.46868 13.3331 7.4196C13.2606 7.37051 13.2033 7.3021 13.1677 7.22211C13.132 7.14212 13.1195 7.05376 13.1316 6.96703L13.3331 5.50875L12.3328 4.55813C12.2708 4.49904 12.2263 4.42412 12.2039 4.34149C12.1815 4.25885 12.1821 4.17166 12.2058 4.08938Z" fill="black"/>
<path d="M24.8438 18.6836V22.9689H25.7812V18.6836C25.4751 18.7723 25.1499 18.7723 24.8438 18.6836Z" fill="black"/>
<path d="M20.625 7.03125V18.6141C20.9255 18.4359 21.2213 18.248 21.5067 18.0403L21.5625 18V5.625H19.6636C19.6321 5.9433 19.5677 6.25748 19.4714 6.5625H20.1563C20.2806 6.5625 20.3998 6.61189 20.4877 6.69979C20.5756 6.7877 20.625 6.90693 20.625 7.03125Z" fill="black"/>
<path d="M25.3125 17.8125C25.8303 17.8125 26.25 17.3928 26.25 16.875C26.25 16.3572 25.8303 15.9375 25.3125 15.9375C24.7947 15.9375 24.375 16.3572 24.375 16.875C24.375 17.3928 24.7947 17.8125 25.3125 17.8125Z" fill="black"/>
<path d="M10.3125 19.1077C11.7787 19.7982 13.3793 20.1562 15 20.1562C16.6207 20.1562 18.2213 19.7982 19.6875 19.1077V7.5H19.0533C18.6432 8.21242 18.0527 8.80418 17.3411 9.21565C16.6295 9.62713 15.822 9.84378 15 9.84378C14.178 9.84378 13.3705 9.62713 12.6589 9.21565C11.9473 8.80418 11.3568 8.21242 10.9467 7.5H10.3125V19.1077ZM15.9375 13.5938C15.9375 13.2208 16.0857 12.8631 16.3494 12.5994C16.6131 12.3357 16.9708 12.1875 17.3438 12.1875C17.7167 12.1875 18.0744 12.3357 18.3381 12.5994C18.6018 12.8631 18.75 13.2208 18.75 13.5938V15.4688C18.75 15.8417 18.6018 16.1994 18.3381 16.4631C18.0744 16.7268 17.7167 16.875 17.3438 16.875C16.9708 16.875 16.6131 16.7268 16.3494 16.4631C16.0857 16.1994 15.9375 15.8417 15.9375 15.4688V13.5938Z" fill="black"/>
<path d="M20.625 22.9685H21.5625V19.1299C21.2569 19.3305 20.9447 19.518 20.625 19.6882V22.9685Z" fill="black"/>
<path d="M4.21875 18.6836V22.9689H5.15625V18.6836C4.85005 18.7723 4.52495 18.7723 4.21875 18.6836Z" fill="black"/>
<path d="M10.3125 20.1396V22.9686H19.6875V20.1396C18.2049 20.7691 16.6107 21.0935 15 21.0935C13.3893 21.0935 11.7951 20.7691 10.3125 20.1396Z" fill="black"/>
<path d="M27.1875 24.375C27.1875 24.2507 27.1381 24.1315 27.0502 24.0435C26.9623 23.9556 26.8431 23.9062 26.7188 23.9062H3.28125C3.15693 23.9062 3.0377 23.9556 2.94979 24.0435C2.86189 24.1315 2.8125 24.2507 2.8125 24.375V25.7812H27.1875V24.375Z" fill="black"/>
<path d="M28.125 26.7188H1.875C1.75068 26.7188 1.63145 26.7681 1.54354 26.856C1.45564 26.944 1.40625 27.0632 1.40625 27.1875V28.5938H28.5938V27.1875C28.5938 27.0632 28.5444 26.944 28.4565 26.856C28.3685 26.7681 28.2493 26.7188 28.125 26.7188Z" fill="black"/>
<path d="M4.6875 17.8125C5.20527 17.8125 5.625 17.3928 5.625 16.875C5.625 16.3572 5.20527 15.9375 4.6875 15.9375C4.16973 15.9375 3.75 16.3572 3.75 16.875C3.75 17.3928 4.16973 17.8125 4.6875 17.8125Z" fill="black"/>
<path d="M9.375 19.6872C9.05531 19.517 8.74312 19.3295 8.4375 19.1289V22.9684H9.375V19.6872Z" fill="black"/>
<path d="M9.375 18.6141V7.03125C9.375 6.90693 9.42439 6.7877 9.51229 6.69979C9.6002 6.61189 9.71943 6.5625 9.84375 6.5625H10.5286C10.4323 6.25748 10.3679 5.9433 10.3364 5.625H8.4375V18L8.49328 18.0403C8.77875 18.248 9.07453 18.4359 9.375 18.6141Z" fill="black"/>
<path d="M23.4375 16.875C23.4401 16.7885 23.4488 16.7024 23.4637 16.6172L22.5 17.318V18.4772L23.625 17.6606C23.5042 17.4162 23.4401 17.1476 23.4375 16.875Z" fill="black"/>
<path d="M7.50008 18.4772V17.318L6.53633 16.6172C6.60177 16.973 6.54564 17.3405 6.37695 17.6606L7.50008 18.4772Z" fill="black"/>
</svg>
