<svg width="21" height="21" viewBox="0 0 21 21" fill="none" xmlns="http://www.w3.org/2000/svg">
<g clip-path="url(#clip0_533_2225)">
<path d="M18.1408 1.89404H2.85942C1.51107 1.89404 0.417969 2.98715 0.417969 4.3355V18.5586C0.417969 19.907 1.51107 21.0001 2.85942 21.0001H18.1408C19.4891 21.0001 20.5822 19.907 20.5822 18.5586V4.3355C20.5822 2.98708 19.4891 1.89404 18.1408 1.89404Z" fill="#EBF0F3"/>
<path d="M20.5822 6.4812V3.523C20.5822 2.17465 19.4891 1.08154 18.1408 1.08154H2.85942C1.51107 1.08154 0.417969 2.17465 0.417969 3.523V6.4812H20.5822Z" fill="#CE412D"/>
<path d="M20.5822 7.03318V4.3355C20.5822 2.98715 19.4891 1.89404 18.1408 1.89404H2.85942C1.51107 1.89404 0.417969 2.98715 0.417969 4.3355V7.03318H20.5822Z" fill="#E56353"/>
<path d="M4.41705 3.20508C3.94644 3.20508 3.56494 3.58658 3.56494 4.05719C3.56494 4.5278 3.94644 4.90923 4.41705 4.90923C4.88766 4.90923 5.26909 4.52773 5.26909 4.05719C5.26916 3.58658 4.88766 3.20508 4.41705 3.20508Z" fill="#D15241"/>
<path d="M4.41705 0C4.16531 0 3.96118 0.204128 3.96118 0.455864V4.00763C3.96118 4.25943 4.16531 4.46349 4.41705 4.46349C4.66878 4.46349 4.87291 4.25943 4.87291 4.00763V0.455864C4.87291 0.204128 4.66885 0 4.41705 0Z" fill="#4D5C7D"/>
<path d="M8.47247 3.20508C8.00186 3.20508 7.62036 3.58658 7.62036 4.05719C7.62036 4.5278 8.00186 4.90923 8.47247 4.90923C8.94308 4.90923 9.32451 4.52773 9.32451 4.05719C9.32458 3.58658 8.94308 3.20508 8.47247 3.20508Z" fill="#D15241"/>
<path d="M8.47247 0C8.22073 0 8.0166 0.204128 8.0166 0.455864V4.00763C8.0166 4.25943 8.22073 4.46349 8.47247 4.46349C8.7242 4.46349 8.92833 4.25943 8.92833 4.00763V0.455864C8.92833 0.204128 8.7242 0 8.47247 0Z" fill="#4D5C7D"/>
<path d="M12.5279 3.20508C12.0573 3.20508 11.6758 3.58658 11.6758 4.05719C11.6758 4.5278 12.0573 4.90923 12.5279 4.90923C12.9985 4.90923 13.3799 4.52773 13.3799 4.05719C13.3799 3.58658 12.9985 3.20508 12.5279 3.20508Z" fill="#D15241"/>
<path d="M12.5279 0C12.2761 0 12.072 0.204128 12.072 0.455864V4.00763C12.072 4.25943 12.2761 4.46349 12.5279 4.46349C12.7796 4.46349 12.9837 4.25943 12.9837 4.00763V0.455864C12.9837 0.204128 12.7796 0 12.5279 0Z" fill="#4D5C7D"/>
<path d="M16.5831 3.20508C16.1125 3.20508 15.731 3.58658 15.731 4.05719C15.731 4.5278 16.1125 4.90923 16.5831 4.90923C17.0537 4.90923 17.4351 4.52773 17.4351 4.05719C17.4351 3.58658 17.0536 3.20508 16.5831 3.20508Z" fill="#D15241"/>
<path d="M16.5831 0C16.3313 0 16.1272 0.204128 16.1272 0.455864V4.00763C16.1272 4.25943 16.3313 4.46349 16.5831 4.46349C16.8348 4.46349 17.0389 4.25943 17.0389 4.00763V0.455864C17.0389 0.204128 16.8349 0 16.5831 0Z" fill="#4D5C7D"/>
<path d="M7.85815 10.4062H9.70106V12.2492H7.85815V10.4062Z" fill="#E56353"/>
<path d="M11.2991 10.4062H13.142V12.2492H11.2991V10.4062Z" fill="#E56353"/>
<path d="M14.7402 10.4062H16.5831V12.2492H14.7402V10.4062Z" fill="#E56353"/>
<path d="M4.41699 13.2954H6.2599V15.1383H4.41699V13.2954Z" fill="#E56353"/>
<path d="M7.85815 13.2954H9.70106V15.1383H7.85815V13.2954Z" fill="#E56353"/>
<path d="M11.2991 13.2954H13.142V15.1383H11.2991V13.2954Z" fill="#E56353"/>
<path d="M14.7402 13.2954H16.5831V15.1383H14.7402V13.2954Z" fill="#E56353"/>
<path d="M4.41699 16.1841H6.2599V18.027H4.41699V16.1841Z" fill="#E56353"/>
<path d="M7.85815 16.1841H9.70106V18.027H7.85815V16.1841Z" fill="#E56353"/>
<path d="M11.2991 16.1841H13.142V18.027H11.2991V16.1841Z" fill="#E56353"/>
</g>
<defs>
<clipPath id="clip0_533_2225">
<rect width="21" height="21" rx="4" fill="white"/>
</clipPath>
</defs>
</svg>
