<svg width="15" height="16" viewBox="0 0 15 16" fill="none" xmlns="http://www.w3.org/2000/svg">
<path d="M6.95487 1.00889C7.14138 0.87464 7.39446 0.87464 7.58104 1.00889L9.30123 2.24684L11.4304 2.24284C11.6613 2.24241 11.866 2.38917 11.937 2.60595L12.5911 4.60502L14.316 5.83649C14.5031 5.97004 14.5813 6.20749 14.5095 6.42401L13.8477 8.42058L14.5095 10.4171C14.5813 10.6337 14.5031 10.8711 14.316 11.0047L12.5911 12.2362L11.937 14.2352C11.866 14.452 11.6613 14.5987 11.4304 14.5983L9.30123 14.5943L7.58104 15.8322C7.39446 15.9665 7.14138 15.9665 6.95487 15.8322L5.23467 14.5943L3.10546 14.5983C2.87457 14.5987 2.66983 14.452 2.5989 14.2352L1.94479 12.2362L0.219847 11.0047C0.0327833 10.8711 -0.0454166 10.6337 0.0263517 10.4171L0.688169 8.42058L0.0263517 6.42401C-0.0454166 6.2075 0.0327833 5.97004 0.219847 5.83649L1.94479 4.60502L2.5989 2.60595C2.66983 2.38917 2.87457 2.24241 3.10547 2.24284L5.23467 2.24684L6.95487 1.00889ZM10.4769 7.0441C10.6844 6.83944 10.6844 6.50758 10.4769 6.3029C10.2694 6.09823 9.93306 6.09823 9.72559 6.3029L6.55962 9.42639L5.16442 8.04999C4.95695 7.8453 4.62059 7.8453 4.41312 8.04999C4.20565 8.25467 4.20565 8.58648 4.41312 8.79116L6.18392 10.5382C6.39139 10.7429 6.72778 10.7429 6.93525 10.5382L10.4769 7.0441Z" fill="#00BB81"/>
</svg>
