<svg width="21" height="21" viewBox="0 0 21 21" fill="none" xmlns="http://www.w3.org/2000/svg">
<g clip-path="url(#clip0_533_2323)">
<path d="M8.2749 0.922852C8.2749 0.922852 8.2749 2.63385 8.2749 2.97362C8.2749 3.3134 8.55036 3.58886 8.89013 3.58886C9.22991 3.58886 9.50537 3.3134 9.50537 2.97362C9.50537 2.63385 9.50537 0.922852 9.50537 0.922852H8.2749Z" fill="#FFB96C"/>
<path d="M11.9663 0.922852C11.9663 0.922852 11.9663 2.63385 11.9663 2.97362C11.9663 3.3134 11.6908 3.58886 11.3511 3.58886C11.0113 3.58886 10.7358 3.3134 10.7358 2.97362C10.7358 2.63385 10.7358 0.922852 10.7358 0.922852H11.9663Z" fill="#FFB96C"/>
<path d="M4.2041 10.7666V13.8428C5.22346 13.8428 6.0498 13.0164 6.0498 11.9971L4.2041 10.7666Z" fill="#068496"/>
<path d="M4.81933 11.9971L3.58886 10.7666L2.3584 11.9971C2.3584 13.0164 3.18474 13.8428 4.20409 13.8428C4.54387 13.8428 4.81933 13.0164 4.81933 11.9971Z" fill="#2FA3B4"/>
<path d="M5.22949 7.0752L3.99902 7.69043L4.81933 11.9971H6.0498V7.8955C6.0498 7.44245 5.68254 7.0752 5.22949 7.0752Z" fill="#57C1D1"/>
<path d="M3.17871 7.0752C2.72565 7.0752 2.3584 7.44245 2.3584 7.8955V11.9971H4.81933V7.8955L3.17871 7.0752Z" fill="#80E0EF"/>
<path d="M5.22948 7.0752H3.17871L4.2041 8.92089L5.22948 7.0752Z" fill="white"/>
<path d="M4.2041 2.15332V5.84471C5.22346 5.84471 6.0498 5.01837 6.0498 3.99902C6.0498 2.97966 5.22346 2.15332 4.2041 2.15332Z" fill="#FF976F"/>
<path d="M4.81933 3.99902C4.81933 2.97966 4.54387 2.15332 4.20409 2.15332C3.18474 2.15332 2.3584 2.97966 2.3584 3.99902C2.3584 5.01837 3.18474 5.84471 4.20409 5.84471C4.54387 5.84471 4.81933 5.01837 4.81933 3.99902Z" fill="#FFB193"/>
<path d="M16.6151 3.36523L16.0371 5.84474C17.0565 5.84474 17.8828 5.0184 17.8828 3.99905L16.6151 3.36523Z" fill="#FFCBB7"/>
<path d="M16.6523 3.99898C16.6523 3.7763 16.6392 3.56282 16.6151 3.36516L14.9296 2.52246C14.4813 2.8592 14.1914 3.39519 14.1914 3.99894C14.1914 5.01829 15.0177 5.84463 16.0371 5.84463C16.3769 5.84467 16.6523 5.01833 16.6523 3.99898Z" fill="#FFE5DB"/>
<path d="M16.0371 2.15332L16.6482 3.78705C17.0343 3.92408 17.4498 3.99902 17.8828 3.99902C17.8828 2.97966 17.0565 2.15332 16.0371 2.15332Z" fill="#E28865"/>
<path d="M16.037 2.15332C15.6214 2.15332 15.238 2.29072 14.9294 2.52254C15.3614 3.09758 15.9575 3.54202 16.648 3.78709C16.613 2.8676 16.3528 2.15332 16.037 2.15332Z" fill="#FF976F"/>
<path d="M16.0369 2.15331C16.5465 2.15331 16.9597 1.74014 16.9597 1.23047C16.9597 0.72079 16.5465 0.307617 16.0369 0.307617C15.5272 0.307617 15.114 0.72079 15.114 1.23047C15.114 1.74014 15.5272 2.15331 16.0369 2.15331Z" fill="#FF976F"/>
<path d="M17.0625 7.0752H15.832V9.53612L17.8828 8.30566V7.8955C17.8828 7.44245 17.5156 7.0752 17.0625 7.0752Z" fill="#FFCBB7"/>
<path d="M16.6523 7.8955C16.6523 7.44245 16.2851 7.0752 15.832 7.0752H15.0117C14.5587 7.0752 14.1914 7.44245 14.1914 7.8955V8.30566L16.6523 9.53612V7.8955Z" fill="#FFE5DB"/>
<path d="M15.4219 11.9971H17.8828V8.30566H16.6523L15.4219 11.9971Z" fill="#D5F5FA"/>
<path d="M14.1914 8.30566L14.1916 10.7666L16.6523 12.4072V8.30566H14.1914Z" fill="white"/>
<path d="M19.0514 12.6121C18.8989 11.8615 18.4734 11.2103 17.8828 10.7666H16.6523L19.4619 20.6923H20.6924L19.0514 12.6121Z" fill="#D5F5FA"/>
<path d="M17.8209 12.6121C17.6684 11.8615 17.2429 11.2103 16.6523 10.7666H14.1914V20.6923H19.4619L17.8209 12.6121Z" fill="white"/>
<path d="M9.50533 0.615234H8.27487C8.10494 0.615234 7.96725 0.752964 7.96725 0.92285V2.97362C7.96725 3.37463 8.22446 3.71658 8.58249 3.84356V5.12694H8.27487C8.10494 5.12694 7.96725 5.26467 7.96725 5.43455C7.96725 5.60444 8.10494 5.74217 8.27487 5.74217H8.56017C8.41043 6.78425 7.51206 7.58786 6.42917 7.58786H6.31441C6.18074 7.11721 5.74873 6.77092 5.23657 6.76772C5.23456 6.76768 5.23255 6.76755 5.23054 6.76755C5.22947 6.76755 3.1787 6.76755 3.1787 6.76755C3.17558 6.76759 3.17369 6.76768 3.17177 6.76772C2.65378 6.77088 2.21762 7.12488 2.08925 7.60369C0.915178 7.73773 0 8.73691 0 9.94625C0 11.1493 0.90558 12.1441 2.07079 12.2865C2.13424 12.7564 2.34961 13.1786 2.66601 13.502V20.2821C2.66601 20.4145 2.7507 20.5321 2.87633 20.574L4.1068 20.9841C4.13908 20.9949 4.17189 21 4.20413 21C4.33296 21 4.45293 20.9185 4.49591 20.7896C4.54964 20.6284 4.46256 20.4542 4.30137 20.4005L3.28124 20.0604V13.9421C3.56113 14.0755 3.87399 14.1503 4.20409 14.1503C4.53418 14.1503 4.84704 14.0755 5.12693 13.9421V20.2821C5.12693 20.4145 5.21163 20.5321 5.33726 20.574L6.56772 20.9841C6.6 20.9949 6.63282 21 6.66505 21C6.79388 21 6.91385 20.9185 6.95684 20.7896C7.01057 20.6284 6.92349 20.4542 6.7623 20.4005L5.74217 20.0604V13.502C6.12238 13.1135 6.3574 12.5823 6.3574 11.997V8.20309H6.42917C7.85175 8.20309 9.02664 7.12447 9.1802 5.74217H9.50533C9.67526 5.74217 9.81295 5.60444 9.81295 5.43455C9.81295 5.26467 9.67526 5.12694 9.50533 5.12694H9.19772V3.84356C9.55574 3.71658 9.81295 3.37467 9.81295 2.97362V0.92285C9.81295 0.752964 9.67526 0.615234 9.50533 0.615234ZM5.74217 7.89548V11.6894H4.5117V9.0006L5.39497 7.41072C5.5966 7.47979 5.74217 7.67075 5.74217 7.89548ZM4.20409 8.28746L3.70152 7.38279H4.70669L4.20409 8.28746ZM2.66601 7.89548C2.66601 7.67075 2.81157 7.47979 3.0132 7.41072L3.89647 9.0006V11.6894H2.66601V7.89548ZM0.615232 9.94625C0.615232 9.09005 1.23588 8.37659 2.05077 8.23082V11.6617C1.23588 11.5159 0.615232 10.8024 0.615232 9.94625ZM2.69697 12.3046H5.71124C5.56834 13.0058 4.94692 13.5351 4.20413 13.5351C3.4613 13.5351 2.83987 13.0058 2.69697 12.3046ZM9.19772 2.97362C9.19772 3.14326 9.05974 3.28124 8.8901 3.28124C8.72046 3.28124 8.58249 3.14326 8.58249 2.97362V1.23047H9.19772V2.97362Z" fill="black"/>
<path d="M4.20409 6.15233C5.39141 6.15233 6.35741 5.18637 6.35741 3.99901C6.35741 2.81166 5.39141 1.8457 4.20409 1.8457C3.01678 1.8457 2.05078 2.81166 2.05078 3.99901C2.05078 5.18637 3.01678 6.15233 4.20409 6.15233ZM4.20409 2.46094C5.05221 2.46094 5.74217 3.1509 5.74217 3.99901C5.74217 4.84713 5.05221 5.53709 4.20409 5.53709C3.35598 5.53709 2.66601 4.84713 2.66601 3.99901C2.66601 3.1509 3.35598 2.46094 4.20409 2.46094Z" fill="black"/>
<path d="M16.0371 6.15232C17.2244 6.15232 18.1904 5.18636 18.1904 3.99901C18.1904 3.13912 17.6836 2.39567 16.9532 2.05081C17.1485 1.83294 17.2676 1.54538 17.2676 1.23046C17.2676 0.551986 16.7156 0 16.0371 0C15.3586 0 14.8066 0.551986 14.8066 1.23046C14.8066 1.54538 14.9257 1.83298 15.121 2.05081C14.9966 2.10955 14.8787 2.17989 14.7687 2.2604C14.7606 2.26541 14.7526 2.2707 14.7448 2.27652C14.7361 2.283 14.728 2.28989 14.7202 2.29707C14.2119 2.69131 13.8838 3.30736 13.8838 3.99897C13.8838 5.18636 14.8498 6.15232 16.0371 6.15232ZM17.5404 3.67417C16.7137 3.59213 15.958 3.2143 15.3954 2.60173C15.5908 2.51162 15.8081 2.46093 16.0371 2.46093C16.7737 2.46093 17.3908 2.98158 17.5404 3.67417ZM15.4219 1.23046C15.4219 0.891225 15.6979 0.615232 16.0371 0.615232C16.3763 0.615232 16.6523 0.891225 16.6523 1.23046C16.6523 1.5697 16.3763 1.8457 16.0371 1.8457C15.6979 1.8457 15.4219 1.5697 15.4219 1.23046ZM14.8969 2.96792C15.5815 3.73913 16.5201 4.20839 17.5467 4.29268C17.4092 5.00077 16.7848 5.53709 16.0371 5.53709C15.189 5.53709 14.499 4.84713 14.499 3.99901C14.499 3.60267 14.6498 3.24092 14.8969 2.96792Z" fill="black"/>
<path d="M20.9938 20.6311L19.3528 12.5507C19.3092 12.3358 19.2443 12.1275 19.1611 11.9276C19.8256 11.4971 20.2413 10.749 20.2413 9.94625C20.2413 8.73683 19.3261 7.73761 18.1519 7.60365C18.023 7.12275 17.5835 6.76755 17.0625 6.76755H15.0117C14.4964 6.76755 14.061 7.11504 13.9268 7.58786H13.812C12.7291 7.58786 11.8308 6.78425 11.681 5.74217H11.9663C12.1362 5.74217 12.2739 5.60444 12.2739 5.43455C12.2739 5.26467 12.1362 5.12694 11.9663 5.12694H11.6587V3.84356C12.0167 3.71658 12.2739 3.37467 12.2739 2.97362V0.92285C12.2739 0.752964 12.1362 0.615234 11.9663 0.615234H10.7358C10.5659 0.615234 10.4282 0.752964 10.4282 0.92285V2.97362C10.4282 3.37463 10.6854 3.71658 11.0435 3.84356V5.12694H10.7358C10.5659 5.12694 10.4282 5.26467 10.4282 5.43455C10.4282 5.60444 10.5659 5.74217 10.7358 5.74217H11.061C11.2145 7.12447 12.3894 8.2031 13.812 8.2031H13.8838V20.6923C13.8838 20.8622 14.0215 20.9999 14.1914 20.9999H18.2315C18.4014 20.9999 18.5391 20.8622 18.5391 20.6923C18.5391 20.5224 18.4014 20.3847 18.2315 20.3847H14.499V11.0742H17.7763C18.2774 11.4792 18.6219 12.0432 18.7499 12.6732L20.316 20.3847H19.4619C19.292 20.3847 19.1543 20.5224 19.1543 20.6923C19.1543 20.8622 19.292 20.9999 19.4619 20.9999H20.6923C20.7847 20.9999 20.8721 20.9585 20.9305 20.887C20.9889 20.8155 21.0122 20.7215 20.9938 20.6311ZM11.0435 1.23047H11.6587V2.97362C11.6587 3.14326 11.5207 3.28124 11.3511 3.28124C11.1814 3.28124 11.0435 3.14326 11.0435 2.97362V1.23047ZM15.0117 7.38279H17.0625C17.3452 7.38279 17.5752 7.61276 17.5752 7.89548V7.99802H14.499V7.89548C14.499 7.61276 14.729 7.38279 15.0117 7.38279ZM14.499 8.61325H17.5752V10.4589H14.499V8.61325ZM18.1904 10.6173V8.23082C19.0054 8.37655 19.6261 9.09006 19.6261 9.94629C19.6261 10.5212 19.3371 11.0579 18.8722 11.3802C18.6862 11.0951 18.4571 10.8375 18.1904 10.6173Z" fill="black"/>
</g>
<defs>
<clipPath id="clip0_533_2323">
<rect width="21" height="21" fill="white"/>
</clipPath>
</defs>
</svg>
