<svg width="32" height="32" viewBox="0 0 32 32" fill="none" xmlns="http://www.w3.org/2000/svg">
<mask id="mask0_262_20" style="mask-type:luminance" maskUnits="userSpaceOnUse" x="0" y="0" width="32" height="32">
<path d="M0 1.90735e-06H32V32H0V1.90735e-06Z" fill="white"/>
</mask>
<g mask="url(#mask0_262_20)">
<path d="M1.25 11.2478L14.5627 1.70199C14.9692 1.4158 15.465 1.2478 16 1.2478C16.535 1.2478 17.0307 1.4158 17.4372 1.70199L30.75 11.2478" stroke="black" stroke-width="2" stroke-miterlimit="10" stroke-linecap="round" stroke-linejoin="round"/>
<path d="M17.4372 7.95193C17.0307 7.6658 16.535 7.4978 16 7.4978C15.4651 7.4978 14.9693 7.6658 14.5628 7.95193L4.81112 14.9914C4.14587 15.4596 3.75 16.2222 3.75 17.0357V28.2478C3.75 29.6286 4.86931 30.7478 6.25 30.7478H13.5V25.7478C13.5 24.3671 14.6193 23.2478 16 23.2478C17.3807 23.2478 18.5 24.3671 18.5 25.7478V30.7478H25.75C27.1307 30.7478 28.25 29.6286 28.25 28.2478V17.0357C28.25 16.2222 27.8542 15.4596 27.1889 14.9914L17.4372 7.95193Z" stroke="black" stroke-width="2" stroke-miterlimit="10" stroke-linecap="round" stroke-linejoin="round"/>
</g>
</svg>
