<svg width="24" height="24" viewBox="0 0 24 24" fill="none" xmlns="http://www.w3.org/2000/svg">
<path d="M12 1C9.82441 1 7.69767 1.64514 5.88873 2.85383C4.07979 4.06253 2.66989 5.7805 1.83733 7.79048C1.00477 9.80047 0.786929 12.0122 1.21137 14.146C1.6358 16.2798 2.68345 18.2398 4.22183 19.7782C5.76021 21.3166 7.72022 22.3642 9.85401 22.7886C11.9878 23.2131 14.1995 22.9952 16.2095 22.1627C18.2195 21.3301 19.9375 19.9202 21.1462 18.1113C22.3549 16.3023 23 14.1756 23 12C23 9.08262 21.8411 6.28473 19.7782 4.22183C17.7153 2.15893 14.9174 1 12 1ZM11.875 5.375C12.2458 5.375 12.6084 5.48497 12.9167 5.69099C13.225 5.89702 13.4654 6.18986 13.6073 6.53247C13.7492 6.87508 13.7863 7.25208 13.714 7.6158C13.6416 7.97951 13.4631 8.3136 13.2008 8.57583C12.9386 8.83805 12.6045 9.01663 12.2408 9.08897C11.8771 9.16132 11.5001 9.12419 11.1575 8.98228C10.8149 8.84036 10.522 8.60004 10.316 8.2917C10.11 7.98335 10 7.62084 10 7.25C10 6.75272 10.1975 6.27581 10.5492 5.92418C10.9008 5.57254 11.3777 5.375 11.875 5.375ZM14.5 18.5H9.50001V18C9.80049 17.8498 10.0532 17.6188 10.2298 17.333C10.4064 17.0473 10.5 16.718 10.5 16.382V12.618C10.5 12.2821 10.4064 11.9527 10.2298 11.667C10.0532 11.3812 9.80049 11.1502 9.50001 11V10.5H13.5V16.433C13.4999 16.7624 13.594 17.0849 13.7712 17.3625C13.9484 17.6402 14.2013 17.8614 14.5 18V18.5Z" fill="black"/>
</svg>
