<svg width="21" height="21" viewBox="0 0 21 21" fill="none" xmlns="http://www.w3.org/2000/svg">
<path d="M9.56685 14.6118L5.11618 16.6089C4.30372 16.9733 4.30372 18.1266 5.11618 18.4911L9.56685 20.4883C10.1731 20.7604 10.8667 20.7604 11.4729 20.4883L15.9238 18.4911C16.7361 18.1266 16.7361 16.9733 15.9238 16.6089L11.4729 14.6118C10.8667 14.3397 10.1731 14.3397 9.56685 14.6118Z" fill="#CCF8FF"/>
<path d="M11.4729 14.6118C10.8667 14.3397 10.1731 14.3397 9.56685 14.6118L5.11618 16.6089C4.30372 16.9733 4.30372 18.1266 5.11618 18.4911L7.66619 19.6355C7.89723 18.8472 8.63711 18.2866 9.49091 18.277C11.3826 18.2556 12.1946 16.6701 12.1946 16.6701V14.9355L11.4729 14.6118Z" fill="#ABEBF4"/>
<path d="M17.0407 6.82845C17.0407 9.23587 14.1265 13.8655 12.1944 16.6703C11.3861 17.8435 9.65356 17.8435 8.84527 16.6703C6.91321 13.8655 3.99902 9.23587 3.99902 6.82845C3.99902 3.22709 6.9185 0.307617 10.5199 0.307617C14.1212 0.307617 17.0407 3.22709 17.0407 6.82845Z" fill="#FFA5B5"/>
<path d="M9.39289 6.56585C8.22058 2.56139 10.897 0.902182 11.8636 0.446205C11.43 0.355362 10.9805 0.307617 10.5199 0.307617C6.9185 0.307617 3.99902 3.22709 3.99902 6.82845C3.99902 9.23587 6.91321 13.8655 8.84527 16.6703C9.65356 17.8435 11.3861 17.8435 12.1944 16.6703C12.4774 16.2595 12.7815 15.8094 13.0942 15.3331C12.7576 12.7111 10.511 10.3851 9.39289 6.56585Z" fill="#FF929F"/>
<path d="M14.3741 6.70086C14.3741 8.8295 12.6486 10.555 10.52 10.555C8.39131 10.555 6.66577 8.8295 6.66577 6.70086C6.66577 4.57222 8.39131 2.84668 10.52 2.84668C12.6486 2.84668 14.3741 4.57222 14.3741 6.70086Z" fill="#FFEB99"/>
<path d="M9.3929 6.56583C8.95695 5.07678 9.05308 3.91232 9.39562 3.01318C7.81508 3.49415 6.66553 4.96318 6.66553 6.7009C6.66553 8.82954 8.39122 10.5551 10.5199 10.5551C10.7052 10.5551 10.8876 10.5421 11.066 10.5166C10.4572 9.36034 9.83638 8.08037 9.3929 6.56583Z" fill="#FFDE55"/>
<path d="M10.8961 4.52302L11.2251 5.18968C11.3356 5.41367 11.5493 5.56876 11.7964 5.60464L12.5321 5.71151C12.8764 5.7615 13.0137 6.18463 12.7647 6.42736L12.2323 6.9463C12.0535 7.12062 11.972 7.37184 12.0141 7.61793L12.1399 8.3506C12.1987 8.69347 11.8387 8.95494 11.5309 8.79312L10.8729 8.44705C10.6518 8.3309 10.3878 8.3309 10.1668 8.44705L9.50865 8.79312C9.20088 8.95494 8.84103 8.69347 8.89983 8.3506L9.02544 7.61793C9.06773 7.37184 8.98602 7.12062 8.80722 6.9463L8.27482 6.42736C8.02584 6.18463 8.16331 5.76166 8.50746 5.71151L9.24317 5.60464C9.49039 5.56876 9.70396 5.41351 9.81451 5.18968L10.1434 4.52302C10.2974 4.21108 10.7422 4.21108 10.8961 4.52302Z" fill="white"/>
<path d="M9.39292 6.56563C9.29535 6.23221 9.22454 5.91579 9.17711 5.61426L8.50757 5.71151C8.16326 5.76166 8.02579 6.18463 8.27493 6.42736L8.80733 6.9463C8.98613 7.12062 9.06768 7.37184 9.02539 7.61793L8.89978 8.3506C8.84098 8.69347 9.20082 8.95494 9.50876 8.79312L10.0868 8.48903C9.83096 7.88918 9.59384 7.25152 9.39292 6.56563Z" fill="#E9FDFF"/>
<path d="M6.35791 6.70086C6.35791 8.99565 8.22492 10.8627 10.5199 10.8627C12.8147 10.8627 14.6817 8.99565 14.6817 6.70086C14.6817 4.40607 12.8147 2.53906 10.5199 2.53906C8.22508 2.53906 6.35791 4.40607 6.35791 6.70086ZM14.0664 6.70086C14.0664 8.65647 12.4755 10.2474 10.5199 10.2474C8.56426 10.2474 6.9733 8.65647 6.9733 6.70086C6.9733 4.74525 8.56426 3.1543 10.5199 3.1543C12.4755 3.1543 14.0664 4.74525 14.0664 6.70086Z" fill="black"/>
<path d="M9.86771 4.38695L9.53879 5.05362C9.47294 5.18676 9.34605 5.27904 9.19913 5.30035L8.46341 5.40722C8.18736 5.44727 7.96241 5.63697 7.87621 5.90229C7.79002 6.16745 7.86067 6.45311 8.0603 6.64778L8.59271 7.16672C8.69893 7.27038 8.74747 7.4197 8.72248 7.56598L8.59671 8.29881C8.54961 8.57358 8.66048 8.84627 8.88606 9.01018C9.0136 9.10278 9.36287 9.24938 9.65206 9.06545L10.3101 8.71954C10.4414 8.65033 10.5985 8.65033 10.7298 8.71954L11.3879 9.06545C11.6347 9.19523 11.9283 9.17408 12.1538 9.01018C12.3794 8.84627 12.4903 8.57358 12.4432 8.29865L12.3176 7.56598C12.2924 7.4197 12.3408 7.27038 12.4472 7.16672L12.9796 6.64778C13.1792 6.45311 13.2497 6.16745 13.1637 5.90229C13.0775 5.63697 12.8526 5.44727 12.5765 5.40722L11.8408 5.30035C11.6939 5.27904 11.5668 5.18676 11.5011 5.05362L11.172 4.38695C11.0487 4.13686 10.7987 3.98145 10.52 3.98145C10.241 3.98145 9.99108 4.13686 9.86771 4.38695ZM10.9495 5.32583C11.1047 5.64065 11.4048 5.85871 11.7523 5.90918C11.7523 5.90918 12.5704 6.06763 12.5784 6.09246C12.5866 6.11714 12.0178 6.72628 12.0178 6.72628C11.7664 6.97125 11.6517 7.32405 11.7112 7.67012C11.7112 7.67012 11.8132 8.49716 11.7922 8.51238C11.7711 8.52776 11.0161 8.17496 11.0161 8.17496C10.7055 8.0117 10.3344 8.0117 10.0238 8.17496C10.0238 8.17496 9.26866 8.52776 9.24767 8.51238C9.22668 8.49716 9.32874 7.67012 9.32874 7.67012C9.38818 7.32405 9.27347 6.97125 9.02209 6.72628C9.02209 6.72628 8.45332 6.11714 8.46133 6.09246C8.4695 6.06763 9.28757 5.90918 9.28757 5.90918C9.63492 5.85871 9.93516 5.64065 10.0904 5.32583C10.0904 5.32583 10.494 4.59668 10.52 4.59668C10.5461 4.59668 10.9495 5.32583 10.9495 5.32583Z" fill="black"/>
<path d="M16.0496 16.3285L13.5468 15.2054C16.6558 10.429 17.3481 8.02286 17.3481 6.82845C17.3481 5.42447 16.9253 4.0756 16.1254 2.92796C16.0281 2.78858 15.8363 2.75429 15.6969 2.85154C15.5576 2.94863 15.5234 3.14041 15.6205 3.2798C16.3482 4.32378 16.7329 5.55088 16.7329 6.82845C16.7329 8.57657 15.0312 12.0099 11.9411 16.4958C11.6141 16.9703 11.0962 17.2425 10.5199 17.2425C9.94355 17.2425 9.42557 16.9703 9.09857 16.4958C6.00846 12.0099 4.30664 8.57657 4.30664 6.82845C4.30664 3.40253 7.09393 0.615233 10.5199 0.615233C12.1404 0.615233 13.6744 1.23559 14.8388 2.36192C14.9611 2.48 15.1557 2.47679 15.2738 2.35471C15.3919 2.23246 15.3887 2.0378 15.2666 1.91972C13.9866 0.681723 12.301 0 10.5199 0C6.75459 0 3.69141 3.06319 3.69141 6.82845C3.69141 8.15248 4.54168 10.9649 8.59196 16.8447C9.02887 17.479 9.74969 17.8579 10.5199 17.8579C11.29 17.8579 12.0108 17.4792 12.4477 16.8447C12.7137 16.4586 12.9654 16.0861 13.2044 15.7261L15.7977 16.8898C16.0654 17.0099 16.2253 17.2568 16.2253 17.5503C16.2253 17.8437 16.0654 18.0906 15.7977 18.2107L11.3469 20.2078C10.8214 20.4438 10.2183 20.4438 9.69265 20.2078L5.24199 18.2107C4.97426 18.0906 4.81437 17.8437 4.81437 17.5503C4.81437 17.2568 4.97426 17.0099 5.24199 16.8898L6.94974 16.1234C7.10483 16.0539 7.17404 15.8719 7.10451 15.7168C7.03497 15.5619 6.85281 15.4927 6.69788 15.5622L4.99012 16.3285C4.50226 16.5474 4.19913 17.0155 4.19913 17.5502C4.19913 18.085 4.50226 18.5531 4.99012 18.772L9.44079 20.7692C9.78366 20.9231 10.1518 21 10.5199 21C10.8879 21 11.2561 20.9231 11.5989 20.7692L16.0496 18.772C16.5374 18.5531 16.8406 18.085 16.8406 17.5502C16.8406 17.0155 16.5374 16.5474 16.0496 16.3285Z" fill="black"/>
</svg>
