<svg width="40" height="40" viewBox="0 0 40 40" fill="none" xmlns="http://www.w3.org/2000/svg">
<path d="M22.7342 32.6158C23.1966 32.2031 23.9063 32.1775 24.4 32.5825C24.943 33.028 25.0192 33.8257 24.57 34.3643C23.4628 35.8003 21.7497 36.6498 19.927 36.6667L19.5651 36.6514C17.8846 36.5295 16.3292 35.7008 15.2988 34.3643L15.1893 34.2114C14.8673 33.6836 14.9751 32.9875 15.4688 32.5825C16.0119 32.137 16.8162 32.2125 17.2654 32.7511C17.4627 33.0127 17.6967 33.2448 17.9604 33.4404C18.6652 33.9608 19.5502 34.1807 20.4192 34.0513C21.2881 33.9219 22.069 33.4539 22.5886 32.7511H22.6034L22.7342 32.6158ZM19.9418 3.33334C25.058 3.33334 30.7952 6.94091 31.4458 12.7335V15.7545C31.668 16.8449 32.1783 17.8571 32.9245 18.6875C32.9687 18.7377 33.0083 18.7916 33.0428 18.8488C33.7194 19.8673 34.1075 21.0475 34.1666 22.2657L34.1222 22.5737C34.1732 24.2409 33.6168 25.8704 32.5548 27.1638C31.1987 28.6271 29.3448 29.5412 27.3499 29.7302C22.436 30.2696 17.4771 30.2696 12.5632 29.7302C10.5975 29.5283 8.77586 28.6146 7.44704 27.1638C6.36761 25.889 5.7945 24.2672 5.83529 22.603V22.3977C5.91658 21.143 6.33526 19.9328 7.0478 18.8928L7.16609 18.7462C7.90711 17.9122 8.41668 16.9015 8.64476 15.8132V12.7922L8.72653 12.6235C8.97512 12.195 9.4593 11.9444 9.9664 11.9993C10.5369 12.061 10.995 12.494 11.0846 13.0562V16.0771C11.0903 16.1308 11.0903 16.1848 11.0846 16.2385C10.7767 17.7514 10.0729 19.1574 9.044 20.3153C8.64775 20.9413 8.42345 21.6592 8.39339 22.3977V22.7204C8.36056 23.7591 8.70713 24.7746 9.36931 25.58C10.2874 26.5205 11.515 27.1032 12.8294 27.2225C17.5865 27.7358 22.3858 27.7358 27.1429 27.2225C28.4932 27.0996 29.7508 26.489 30.6769 25.5067C31.3066 24.7203 31.6365 23.7388 31.6085 22.735V22.3977C31.5782 21.6567 31.3594 20.9353 30.9727 20.3006C29.9009 19.1559 29.1558 17.7487 28.8138 16.2238C28.8081 16.1702 28.8081 16.1161 28.8138 16.0625V13.0268C28.385 8.59804 23.9342 5.85571 20.0601 5.85571C18.413 5.85195 16.793 6.27129 15.3579 7.07289L15.1821 7.16014C14.8208 7.30606 14.4074 7.28044 14.0638 7.0824C13.6629 6.85134 13.4206 6.42222 13.4314 5.96252C13.4423 5.50281 13.7045 5.08539 14.1158 4.87316C15.8942 3.8768 17.8994 3.34681 19.9418 3.33334Z" fill="black"/>
<circle cx="29.9999" cy="7.33332" r="4.16667" fill="#33EB45" stroke="white"/>
</svg>
