<svg width="54" height="55" viewBox="0 0 54 55" fill="none" xmlns="http://www.w3.org/2000/svg">
<path fill-rule="evenodd" clip-rule="evenodd" d="M0 27.3695C0 12.4887 11.9391 0.425415 26.6667 0.425415C33.7391 0.425415 40.5219 3.26417 45.5229 8.31714C50.5238 13.3702 53.3333 20.2235 53.3333 27.3695C53.3333 42.2504 41.3943 54.3137 26.6667 54.3137C11.9391 54.3137 0 42.2504 0 27.3695ZM21.7868 38.9017L37.3334 29.094C37.9152 28.7175 38.2671 28.0676 38.2671 27.3695C38.2671 26.6715 37.9152 26.0215 37.3334 25.6452L21.7334 15.8375C21.119 15.446 20.3428 15.422 19.7058 15.7745C19.0688 16.1272 18.671 16.801 18.6668 17.535V37.2042C18.6582 37.9559 19.0633 38.6504 19.7184 39.0068C20.3735 39.3632 21.1703 39.3227 21.7868 38.9017Z" fill="white"/>
</svg>
