<svg width="35" height="34" viewBox="0 0 35 34" fill="none" xmlns="http://www.w3.org/2000/svg">
<path d="M17.8534 13.4584C19.8098 13.4584 21.3951 15.0436 21.3951 17C21.3951 18.9565 19.8098 20.5417 17.8534 20.5417C15.897 20.5417 14.3118 18.9565 14.3118 17" stroke="black" stroke-width="2" stroke-linecap="round" stroke-linejoin="round"/>
<path d="M11.0709 8.98028C9.39359 8.00419 7.25017 8.58219 6.28259 10.2709C5.315 11.9609 5.88875 14.1199 7.56609 15.0932C9.021 15.9418 9.021 18.0583 7.56609 18.9069C5.88875 19.8815 5.315 22.0419 6.28259 23.7292C7.25017 25.4179 9.39359 25.9959 11.0695 25.0226C12.5258 24.174 14.3477 25.2337 14.3477 26.928C14.3477 28.8774 15.9187 30.4584 17.8539 30.4584C19.789 30.4584 21.3587 28.8774 21.3587 26.928C21.3587 25.2337 23.1805 24.174 24.6383 25.0226" stroke="black" stroke-width="2" stroke-linecap="round" stroke-linejoin="round"/>
<path d="M29.4251 23.7291C30.3941 22.0419 29.8189 19.8815 28.143 18.9068C26.6866 18.0582 26.6852 15.9417 28.143 15.0931C29.8189 14.1199 30.3941 11.9609 29.4251 10.2708C28.4561 8.58213 26.3126 8.00413 24.6381 8.98021C23.1804 9.82596 21.3586 8.76771 21.3586 7.07196C21.3586 5.12263 19.7889 3.54163 17.8537 3.54163C15.9186 3.54163 14.3474 5.12263 14.3474 7.07196" stroke="black" stroke-width="2" stroke-linecap="round" stroke-linejoin="round"/>
</svg>
