<svg width="35" height="34" viewBox="0 0 35 34" fill="none" xmlns="http://www.w3.org/2000/svg">
<path fill-rule="evenodd" clip-rule="evenodd" d="M25.7976 28.9242C28.451 28.9242 30.6029 26.7737 30.6043 24.1203V24.1175V20.2925C28.8519 20.2925 27.4324 18.873 27.431 17.1205C27.431 15.3695 28.8505 13.9486 30.6029 13.9486L30.6043 10.1236C30.6072 7.46879 28.4581 5.31546 25.8047 5.31262H25.7962H9.20416C6.54933 5.31262 4.39741 7.46312 4.396 10.118V14.0719C6.0875 14.0124 7.50558 15.3355 7.56508 17.027C7.5665 17.0582 7.56791 17.0894 7.56791 17.1205C7.56933 18.8701 6.15408 20.2896 4.4045 20.2925H4.396V24.1175C4.39458 26.7709 6.5465 28.9242 9.19991 28.9242H25.7976Z" stroke="#383838" stroke-width="2" stroke-linecap="round" stroke-linejoin="round"/>
<path fill-rule="evenodd" clip-rule="evenodd" d="M18.026 12.8393L18.8987 14.6059C18.9837 14.7788 19.148 14.8992 19.3392 14.9275L21.29 15.2123C21.7731 15.2831 21.9643 15.8753 21.6158 16.2138L20.2048 17.588C20.066 17.7226 20.0037 17.9167 20.0348 18.1079L20.3677 20.0488C20.4499 20.529 19.947 20.8945 19.5163 20.6678L17.7724 19.7513C17.601 19.6606 17.397 19.6606 17.2256 19.7513L15.4831 20.6678C15.051 20.8945 14.5481 20.529 14.6302 20.0488L14.9632 18.1079C14.9957 17.9167 14.932 17.7226 14.7932 17.588L13.3836 16.2138C13.0351 15.8753 13.2263 15.2831 13.708 15.2123L15.6587 14.9275C15.85 14.8992 16.0157 14.7788 16.1007 14.6059L16.972 12.8393C17.1873 12.403 17.8107 12.403 18.026 12.8393Z" stroke="#383838" stroke-width="2" stroke-linecap="round" stroke-linejoin="round"/>
</svg>
